HIERARCHY
ROOT Hips
{
	OFFSET 0.000000 0.000000 0.000000 
	CHANNELS 6 Xposition Yposition Zposition Yrotation Zrotation Xrotation 
	JOINT Lumbar
	{
		OFFSET 0.000000 0.000000 0.000000 
		CHANNELS 3 Zrotation Xrotation Yrotation
		JOINT Neck
		{
			OFFSET 0.000000 0.445665 0.000000 
			CHANNELS 3 Zrotation Xrotation Yrotation
			End Site
			{
				OFFSET 0.000000 0.227535 0.000000 
			}
		}
		JOINT RightShoulder
		{
			OFFSET 0.019635 0.377685 0.194865 
			CHANNELS 3 Zrotation Xrotation Yrotation
			JOINT RightElbow
			{
				OFFSET 0.000000 -0.243375 0.000000 
				CHANNELS 2 Zrotation Yrotation
				JOINT RightWrist
				{
					OFFSET 0.000000 -0.264825 0.000000 
					CHANNELS 2 Zrotation Xrotation
					End Site
					{
						OFFSET 0.006600 -0.176220 0.000990 
					}
				}
			}
		}
		JOINT LeftShoulder
		{
			OFFSET 0.019635 0.377685 -0.194865 
			CHANNELS 3 Zrotation Xrotation Yrotation
			JOINT LeftElbow
			{
				OFFSET 0.000000 -0.243375 0.000000 
				CHANNELS 2 Zrotation Yrotation
				JOINT LeftWrist
				{
					OFFSET 0.000000 -0.264825 0.000000 
					CHANNELS 2 Zrotation Xrotation
					End Site
					{
						OFFSET 0.006600 -0.176220 -0.000990 
					}
				}
			}
		}
	}
	JOINT RightHip
	{
		OFFSET 0.052140 -0.069960 0.075570 
		CHANNELS 3 Zrotation Xrotation Yrotation
		JOINT RightKnee
		{
			OFFSET 0.000000 -0.402270 0.000000 
			CHANNELS 1 Zrotation
			JOINT RightAnkle
			{
				OFFSET 0.000000 -0.404085 0.000000 
				CHANNELS 3 Zrotation Xrotation Yrotation
				End Site
				{
					OFFSET 0.204105 -0.089430 0.008415 
				}
			}
		}
	}
	JOINT LeftHip
	{
		OFFSET 0.052140 -0.069960 -0.075570 
		CHANNELS 3 Zrotation Xrotation Yrotation
		JOINT LeftKnee
		{
			OFFSET 0.000000 -0.402270 0.000000 
			CHANNELS 1 Zrotation
			JOINT LeftAnkle
			{
				OFFSET 0.000000 -0.404085 0.000000 
				CHANNELS 3 Zrotation Xrotation Yrotation
				End Site
				{
					OFFSET 0.204105 -0.089430 -0.008415 
				}
			}
		}
	}
}
MOTION
Frames: 29
Frame Time: 0.02
0 0.95578 0 175.95934 0 -4.30307 4.44442 4.97936 -2.9566 -23.87109 8.03337 7.44202 -12.89971 -77.34747 -87.14688 20.03634 52.64993 -27.36816 1.57306 19.97177 62.02897 67.8233 21.39346 -80.80497 -19.95588 2.86189 -3.44299 6.85009 -4.86833 -6.70604 1.68203 -3.72718 -8.00351 -5.46829 2.77201 10.89992 -6.02381 8.12407 6.08902 9.46827
-0.00023 0.95575 -0.00021 175.99274 0 -4.30939 4.49471 4.90357 -2.91173 -23.93073 8.00887 7.43221 -12.44108 -77.29105 -87.14688 20.14305 52.34191 -27.03014 1.67552 20.33818 62.1147 67.38262 21.53419 -81.04826 -20.01799 2.90195 -3.46497 6.86586 -4.9266 -6.70023 1.69701 -3.72066 -7.96721 -5.49067 2.78953 10.87223 -6.00285 8.12848 6.11102 9.46774
-0.00047 0.95571 -0.00041 176.02583 0 -4.31571 4.54494 4.82815 -2.86696 -23.99051 7.98409 7.42235 -11.98344 -77.2347 -87.14685 20.24946 52.03664 -26.69277 1.77768 20.70263 62.19988 66.94442 21.67409 -81.29041 -20.07985 2.94179 -3.48686 6.88157 -4.98431 -6.69446 1.71191 -3.71421 -7.93121 -5.51294 2.80698 10.84492 -5.98208 8.13294 6.13287 9.46719
-0.0007 0.95568 -0.00062 176.0579 0 -4.32201 4.59506 4.75356 -2.82244 -24.05155 7.95956 7.41285 -11.52819 -77.18041 -87.14689 20.35567 51.74008 -26.35734 1.88 21.06272 62.28265 66.51303 21.81209 -81.52752 -20.14038 2.98052 -3.50849 6.89714 -5.04053 -6.68881 1.7266 -3.70802 -7.89594 -5.5349 2.82426 10.8189 -5.96196 8.13756 6.1542 9.4665
-0.00094 0.95564 -0.00083 176.09525 0 -4.32834 4.64532 4.67465 -2.77696 -24.10609 7.93568 7.40222 -11.0638 -77.11808 -87.14688 20.46289 51.39802 -26.01487 1.9819 21.44579 62.37689 66.047 21.96018 -81.78772 -20.20674 3.02435 -3.5314 6.9134 -5.10484 -6.68256 1.74236 -3.70051 -7.85664 -5.55839 2.8424 10.7861 -5.93851 8.1412 6.17815 9.46649
-0.00117 0.95561 -0.00102 176.12145 0 -4.33464 4.69554 4.60489 -2.73331 -24.1742 7.90913 7.39346 -10.61682 -77.07088 -87.14675 20.56787 51.15216 -25.68542 2.08429 21.77994 62.44767 65.65374 22.08676 -82.00132 -20.26155 3.05787 -3.55164 6.92824 -5.15182 -6.67756 1.75587 -3.69579 -7.82604 -5.57869 2.85874 10.76761 -5.92207 8.14702 6.19661 9.46504
-0.00136 0.95558 -0.00113 176.11605 0 -4.34074 4.74452 4.5599 -2.6955 -24.28366 7.88479 7.39387 -10.22598 -77.08071 -87.14714 20.6695 51.18261 -25.40186 2.19303 21.98193 62.44559 65.46599 22.15551 -82.07005 -20.28038 3.05885 -3.56408 6.93898 -5.15177 -6.67641 1.76306 -3.69884 -7.81845 -5.58972 2.86999 10.78992 -5.92575 8.15836 6.19914 9.45943
-0.00155 0.95556 -0.00122 176.09957 0 -4.34683 4.79368 4.52419 -2.65923 -24.40594 7.85577 7.39511 -9.8499 -77.10222 -87.14653 20.76852 51.31122 -25.12886 2.3011 22.13369 62.42117 65.35068 22.20233 -82.09731 -20.29018 3.05043 -3.57387 6.94831 -5.13409 -6.67651 1.76802 -3.7047 -7.81982 -5.59756 2.87944 10.82639 -5.93643 8.17199 6.19628 9.45244
-0.00174 0.95553 -0.00131 176.08863 0 -4.35303 4.8436 4.48451 -2.62185 -24.52036 7.82288 7.39379 -9.46244 -77.10952 -87.14677 20.86692 51.38431 -24.84479 2.40678 22.30745 62.41241 65.19899 22.25826 -82.15095 -20.30443 3.0486 -3.58523 6.95841 -5.12393 -6.67572 1.7741 -3.70925 -7.81775 -5.60724 2.88978 10.85564 -5.94336 8.18493 6.19641 9.44617
-0.00193 0.9555 -0.00141 176.07542 0 -4.35883 4.89016 4.44378 -2.58673 -24.64455 7.81614 7.40305 -9.09842 -77.15774 -87.14834 20.97267 51.49136 -24.58905 2.52526 22.48683 62.38098 65.06185 22.3178 -82.16241 -20.30961 3.03587 -3.59529 6.968 -5.1158 -6.67605 1.77974 -3.71393 -7.81302 -5.61551 2.89978 10.88846 -5.95246 8.19645 6.19427 9.43937
-0.00212 0.95547 -0.0015 176.0645 0 -4.36542 4.94353 4.40743 -2.54661 -24.74991 7.75278 7.38877 -8.68448 -77.11932 -87.14315 21.06284 51.56616 -24.27453 2.61512 22.63983 62.39075 64.9117 22.36459 -82.26487 -20.34106 3.04504 -3.60715 6.97826 -5.0993 -6.67463 1.78576 -3.71902 -7.81598 -5.62566 2.91009 10.91688 -5.959 8.21141 6.19556 9.4335
-0.00237 0.95541 -0.00158 176.06092 0 -4.37428 5.01769 4.38119 -2.4982 -24.81417 7.54314 7.32387 -8.16847 -76.87434 -87.15165 21.10724 51.39988 -23.81565 2.64065 22.75694 62.52422 64.7081 22.38077 -82.51613 -20.36543 3.10452 -3.6268 6.99105 -5.06379 -6.66569 1.79349 -3.72445 -7.8376 -5.64452 2.92149 10.93265 -5.95394 8.23581 6.20793 9.42931
-0.00263 0.95535 -0.00165 176.06027 0 -4.38389 5.09832 4.35902 -2.44373 -24.85694 7.27509 7.23266 -7.59462 -76.53499 -87.14736 21.13645 51.22286 -23.29434 2.63405 22.84525 62.69805 64.48963 22.38441 -82.8803 -20.43147 3.1885 -3.64795 7.00447 -5.02054 -6.65537 1.80172 -3.73022 -7.86668 -5.66492 2.93325 10.94304 -5.94651 8.26352 6.22389 9.42633
-0.00288 0.95529 -0.00173 176.05952 0 -4.39309 5.17472 4.33473 -2.38805 -24.89968 7.02782 7.14371 -7.021 -76.21571 -87.1279 21.17516 51.13318 -22.78698 2.63339 22.92979 62.85173 64.27683 22.39505 -83.26811 -20.53261 3.2697 -3.66701 7.01739 -4.98094 -6.64729 1.80953 -3.73593 -7.89265 -5.6828 2.94501 10.95385 -5.9421 8.28933 6.23801 9.42365
-0.00317 0.95523 -0.00181 176.05355 0 -4.4026 5.25664 4.31175 -2.34874 -24.98207 6.80439 7.09511 -6.55669 -75.99373 -87.1971 21.20382 50.69388 -22.3371 2.67183 23.0812 63.01646 64.06799 22.40187 -83.34272 -20.40687 3.31615 -3.69196 7.03123 -4.94005 -6.63258 1.8178 -3.74136 -7.91795 -5.70813 2.95617 10.97336 -5.93001 8.31672 6.2528 9.41738
-0.00336 0.95518 -0.00188 176.05885 0 -4.41159 5.3285 4.28708 -2.2744 -24.97933 6.51791 6.95699 -5.85231 -75.54582 -87.07848 21.24857 50.98512 -21.75725 2.61804 23.09036 63.16279 63.85042 22.41086 -84.09115 -20.7617 3.43987 -3.70497 7.0432 -4.90041 -6.63115 1.8256 -3.7474 -7.94606 -5.71848 2.96847 10.97369 -5.9329 8.34177 6.26718 9.41881
-0.00331 0.95517 -0.00192 176.09846 0 -4.41957 5.37171 4.25514 -2.10016 -24.72297 6.06836 6.57139 -4.48636 -74.50272 -86.44621 21.35179 53.23959 -20.79324 2.34548 22.68632 63.29262 63.57856 22.45492 -86.72084 -22.44483 3.77992 -3.68522 7.05094 -4.86451 -6.66818 1.82925 -3.75513 -7.98209 -5.68598 2.98563 10.91884 -5.98108 8.35791 6.27897 9.44181
-0.00317 0.95519 -0.00194 176.14861 0 -4.42688 5.40439 4.22166 -1.89177 -24.38594 5.55817 6.09793 -2.88358 -73.23439 -85.62575 21.46958 56.2366 -19.7081 1.97675 22.14551 63.39371 63.30491 22.49648 -90.01376 -24.60381 4.19526 -3.6533 7.05658 -4.83045 -6.71833 1.83294 -3.76343 -8.02029 -5.63855 3.00358 10.8455 -6.0438 8.37187 6.29036 9.47234
-0.00305 0.95518 -0.00196 176.19148 0 -4.43412 5.44144 4.18989 -1.70204 -24.10155 5.07774 5.66904 -1.39696 -72.06543 -84.88926 21.57421 58.93426 -18.705 1.6327 21.68558 63.48003 63.05324 22.52269 -92.9744 -26.54285 4.57032 -3.62663 7.06251 -4.79672 -6.76148 1.83841 -3.77138 -8.05611 -5.59875 3.02 10.78278 -6.0976 8.38787 6.30231 9.49909
-0.00299 0.95521 -0.00201 176.24508 0 -4.44298 5.48062 4.15389 -1.49872 -23.74946 4.58539 5.21937 0.1296 -70.90576 -84.15584 21.70682 61.48355 -17.58587 1.36472 21.14555 63.68818 62.70961 22.61954 -96.07828 -28.51634 4.97184 -3.60126 7.07132 -4.758 -6.80894 1.8363 -3.77971 -8.09797 -5.55556 3.04141 10.71032 -6.16096 8.39955 6.31276 9.52765
-0.0028 0.95518 -0.00199 176.27866 0 -4.44827 5.5126 4.12641 -1.31582 -23.51885 4.10497 4.79278 1.62607 -69.67454 -83.37534 21.78365 64.50232 -16.68031 0.91979 20.74028 63.63152 62.55995 22.56696 -99.02855 -30.50866 5.33576 -3.57019 7.07353 -4.72996 -6.85057 1.85001 -3.78738 -8.1278 -5.51572 3.05253 10.65411 -6.20805 8.41968 6.32622 9.55391
-0.00228 0.95498 -0.00177 176.25568 0 -4.44422 5.52851 4.12161 -1.19659 -23.64858 3.66627 4.44903 3.00071 -68.30023 -82.47805 21.71258 68.77252 -16.39539 -0.02364 20.74021 62.88116 62.92316 22.11822 -101.48976 -32.62555 5.57799 -3.52708 7.05881 -4.73319 -6.87298 1.90724 -3.79307 -8.12271 -5.48989 3.03565 10.64446 -6.20532 8.46354 6.34808 9.57451
-0.00163 0.95473 -0.00147 176.21206 0 -4.43653 5.53716 4.1256 -1.09943 -23.90214 3.24321 4.13217 4.33236 -66.86212 -81.54615 21.58301 73.46346 -16.32937 -1.13536 20.88037 61.85891 63.4858 21.51635 -103.7555 -34.7107 5.77977 -3.47848 7.03737 -4.74679 -6.88914 1.98042 -3.7981 -8.10565 -5.46766 3.00827 10.65214 -6.18602 8.51596 6.37299 9.59216
-0.00104 0.9545 -0.0012 176.17685 0 -4.43028 5.54841 4.12639 -0.99273 -24.09621 2.81714 3.80465 5.67163 -65.45424 -80.65159 21.47408 77.87296 -16.16296 -2.14803 20.95716 60.94151 63.97269 20.97414 -106.04532 -36.68464 5.9993 -3.43197 7.01847 -4.75411 -6.90806 2.04642 -3.80339 -8.09476 -5.44309 2.98528 10.65406 -6.17517 8.56461 6.39649 9.60935
-0.00047 0.95427 -0.00096 176.14561 0 -4.42497 5.5627 4.12392 -0.88223 -24.30254 2.37117 3.46728 7.07221 -64.03377 -79.65888 21.39126 82.6919 -15.99726 -3.25964 21.02902 60.10405 64.3976 20.47344 -108.62857 -39.20053 6.22323 -3.38691 7.00165 -4.76781 -6.92753 2.11218 -3.8087 -8.08076 -5.4212 2.9639 10.64732 -6.16083 8.61284 6.42004 9.63393
0.00018 0.95403 -0.00065 176.10171 0 -4.4168 5.56852 4.13015 -0.786 -24.51191 1.97174 3.15818 8.32839 -62.62664 -78.86526 21.23937 86.74502 -15.88222 -4.20355 21.1445 59.03348 64.99783 19.85036 -110.54953 -40.58028 6.42855 -3.33747 6.97894 -4.77106 -6.9445 2.18214 -3.814 -8.07052 -5.39451 2.93668 10.66181 -6.14978 8.66381 6.44427 9.64292
0.00101 0.95376 -0.00017 176.0224 0 -4.40194 5.55726 4.15976 -0.71837 -24.71552 1.69266 2.91937 9.22374 -61.27857 -78.62665 20.91577 88.60225 -15.86646 -4.64523 21.36172 57.40574 66.04016 18.92375 -110.64808 -38.7713 6.58147 -3.27904 6.94162 -4.73945 -6.9534 2.26047 -3.81773 -8.0724 -5.35615 2.89583 10.74075 -6.15033 8.72175 6.46914 9.60397
0.00191 0.95347 0.00037 175.93215 0 -4.38427 5.53686 4.19742 -0.66562 -24.91509 1.46117 2.70887 9.96868 -59.94576 -78.59057 20.52362 89.66511 -15.89221 -4.91149 21.61564 55.54888 67.24847 17.88024 -110.08881 -35.8282 6.71834 -3.21612 6.89863 -4.69764 -6.96042 2.34234 -3.82176 -8.07873 -5.31248 2.84951 10.83875 -6.15493 8.78187 6.4946 9.55025
0.00279 0.9532 0.00088 175.85036 0 -4.3677 5.51782 4.2306 -0.60966 -25.10662 1.21079 2.4865 10.76364 -58.60312 -78.46553 20.15981 91.07537 -15.89126 -5.25624 21.8434 53.78436 68.37928 16.89183 -109.85757 -33.44136 6.86981 -3.1541 6.85821 -4.66267 -6.97002 2.42214 -3.82676 -8.08379 -5.26971 2.80573 10.92142 -6.15869 8.83999 6.52019 9.50719
